<?xml version="1.0" encoding="utf-8"?>
<!-- Generator: Adobe Illustrator 18.0.0, SVG Export Plug-In . SVG Version: 6.00 Build 0)  -->
<!DOCTYPE svg PUBLIC "-//W3C//DTD SVG 1.1//EN" "http://www.w3.org/Graphics/SVG/1.1/DTD/svg11.dtd">
<svg version="1.1" id="Layer_1" xmlns="http://www.w3.org/2000/svg" xmlns:xlink="http://www.w3.org/1999/xlink" x="0px" y="0px"
	 width="317.5px" height="26.1px" viewBox="0 0 317.5 26.1" enable-background="new 0 0 317.5 26.1" xml:space="preserve">
<g>
	<g>
		<path fill="#4f4f4d" d="M145.8,11.9H24.5c-1.3,0-1.3,3.2,0,3.2h121.3C147.1,15.1,147.1,11.9,145.8,11.9z"/>
		<path fill="#4f4f4d" d="M20.7,9.1c-0.5-0.7-0.9-1.4-1.4-2.1c0,0,0-0.1-0.1-0.1c0,0-0.1-0.1-0.1-0.1c-1.4-2.1-2.9-4.2-4.3-6.3
			c-0.7-1-2-0.4-1.8,0.8c0.6,3.2,2.1,6,4.5,8.2c0.4,0.3,0.8,0.3,1.2,0.1c0.1,0.2,0.2,0.3,0.3,0.5C19.7,11.2,21.4,10.2,20.7,9.1z"/>
		<path fill="#4f4f4d" d="M14.4,11.7C11.1,12,9,8.4,5.7,8.1c-2-0.2-4.2,1-4.5,3.1c-0.9,5.8,10,3.6,12.6,2.5c0,0,0,0,0.1,0
			c0.2,0,0.3,0,0.5,0C15.7,13.6,15.7,11.6,14.4,11.7z M4.7,12.8c-0.3-0.1-0.6-0.2-0.9-0.3c-0.1-1.4,0.3-2.2,1.1-2.4
			c-0.8,0.3-1,1.6,0,1.9C6,12.3,7.1,12.7,8.2,13c-0.1,0-0.3,0-0.4,0C6.8,13.1,5.7,13.1,4.7,12.8z"/>
		<path fill="#4f4f4d" d="M17.3,15.3c-3.6,2.2-6.5,5.3-8.1,9.2c-0.4,0.9,0.4,1.8,1.4,1.4c3.5-1.5,6.3-4.3,7.8-7.8
			c0.2-0.4,0.1-0.8-0.1-1c0,0,0,0,0,0C19.4,16.4,18.4,14.7,17.3,15.3z M12.7,22.3c0.8-1.1,1.7-2.2,2.7-3.1c0,0,0,0,0,0
			C14.7,20.4,13.8,21.4,12.7,22.3z"/>
	</g>
	<g>
		<path fill="#4f4f4d" d="M171.7,11.9H293c1.3,0,1.3,3.2,0,3.2H171.7C170.4,15.1,170.4,11.9,171.7,11.9z"/>
		<path fill="#4f4f4d" d="M296.8,9.1c0.5-0.7,0.9-1.4,1.4-2.1c0,0,0-0.1,0.1-0.1c0,0,0.1-0.1,0.1-0.1c1.4-2.1,2.9-4.2,4.3-6.3
			c0.7-1,2-0.4,1.8,0.8c-0.6,3.2-2.1,6-4.5,8.2c-0.4,0.3-0.8,0.3-1.2,0.1c-0.1,0.2-0.2,0.3-0.3,0.5C297.8,11.2,296.1,10.2,296.8,9.1
			z"/>
		<path fill="#4f4f4d" d="M303,13.7c0.2,0,0.3,0,0.5,0c0,0,0,0,0.1,0c2.6,1.1,13.5,3.3,12.6-2.5c-0.3-2.1-2.5-3.3-4.5-3.1
			c-3.3,0.3-5.3,3.9-8.7,3.6C301.8,11.6,301.8,13.6,303,13.7z M309.7,13.1c-0.1,0-0.3,0-0.4,0c1.1-0.4,2.2-0.7,3.3-1.1
			c1-0.3,0.8-1.6,0-1.9c0.8,0.2,1.1,1,1.1,2.4c-0.3,0.1-0.6,0.2-0.9,0.3C311.8,13.1,310.7,13.1,309.7,13.1z"/>
		<path fill="#4f4f4d" d="M299.2,17.1L299.2,17.1c-0.2,0.3-0.3,0.6-0.1,1c1.5,3.5,4.3,6.3,7.8,7.8c0.9,0.4,1.8-0.4,1.4-1.4
			c-1.7-3.9-4.5-7.1-8.1-9.2C299.1,14.7,298.1,16.4,299.2,17.1z M302,19.2C302,19.2,302,19.2,302,19.2c1,0.9,2,1.9,2.7,3
			C303.7,21.4,302.8,20.4,302,19.2z"/>
	</g>
	<path fill="#4f4f4d" d="M163.4,10.6c-1.3-2.1-4.1-3.3-6.4-2.2c-2.3,1.1-3.7,3.8-2.7,6.2c0.2,0.6,0.4,1.2,0.8,1.8
		c1.6,2.2,4.5,2.7,6.7,1.1C164,16,164.8,13,163.4,10.6z M159.7,13.3c-0.2,0.1-1.6,0.2-1.5-0.4c0.1-0.3,0.9-0.3,1.1-0.2
		c0.4,0.1,0.6,0.3,0.6,0.6C159.9,13.2,159.8,13.2,159.7,13.3z"/>
</g>
</svg>
