<?xml version="1.0" encoding="utf-8"?>
<!-- Generator: Adobe Illustrator 15.0.0, SVG Export Plug-In . SVG Version: 6.00 Build 0)  -->
<!DOCTYPE svg PUBLIC "-//W3C//DTD SVG 1.1//EN" "http://www.w3.org/Graphics/SVG/1.1/DTD/svg11.dtd">
<svg version="1.1" id="Layer_1" xmlns="http://www.w3.org/2000/svg" xmlns:xlink="http://www.w3.org/1999/xlink" x="0px" y="0px"
	 width="233.86px" height="56.04px" viewBox="0 0 233.86 56.04" enable-background="new 0 0 233.86 56.04" xml:space="preserve">
<g>
	<path fill-rule="evenodd" clip-rule="evenodd" fill="#D2A4CC" d="M110.821,31.642l-1.69,1.749l-0.172,0.177l-0.178-0.171
		c-0.679-0.662-1.353-1.16-2.016-1.491c-0.65-0.324-1.291-0.487-1.921-0.487c-0.396,0-0.76,0.065-1.093,0.194
		c-0.333,0.129-0.64,0.325-0.92,0.585c-0.28,0.258-0.489,0.537-0.626,0.835c-0.136,0.295-0.205,0.616-0.205,0.955
		c0,0.299,0.057,0.594,0.17,0.88h-0.001c0.114,0.29,0.291,0.577,0.523,0.858l0,0c0.236,0.288,0.609,0.606,1.118,0.954
		c0.514,0.354,1.167,0.736,1.955,1.141c0.988,0.513,1.819,1.016,2.491,1.511c0.68,0.5,1.204,0.997,1.569,1.488l0.001,0.002
		c0.361,0.494,0.633,1.023,0.814,1.583c0.181,0.559,0.271,1.149,0.271,1.77c0,0.867-0.154,1.67-0.462,2.412
		c-0.308,0.741-0.767,1.414-1.379,2.021h-0.001c-0.61,0.603-1.299,1.057-2.064,1.359c-0.763,0.3-1.601,0.454-2.512,0.454
		c-1.213,0-2.37-0.266-3.474-0.795c-0.552-0.266-1.055-0.579-1.507-0.94c-0.46-0.366-0.873-0.784-1.237-1.248l-0.127-0.163
		l0.135-0.152l1.653-1.876l0.183-0.208l0.186,0.208c0.648,0.73,1.316,1.279,2,1.644v0.002c0.673,0.357,1.363,0.536,2.073,0.536
		c0.497,0,0.957-0.078,1.375-0.236c0.416-0.157,0.797-0.394,1.14-0.71l0,0c0.342-0.312,0.603-0.656,0.773-1.023h0.001
		c0.167-0.36,0.252-0.755,0.252-1.176c0-0.349-0.056-0.675-0.167-0.981c-0.111-0.305-0.28-0.595-0.505-0.862
		c-0.233-0.274-0.617-0.589-1.151-0.939h-0.001c-0.54-0.358-1.232-0.751-2.071-1.178h-0.004c-0.927-0.481-1.711-0.962-2.348-1.439
		c-0.647-0.487-1.144-0.97-1.49-1.453c-0.344-0.479-0.605-1-0.777-1.555c-0.173-0.553-0.261-1.14-0.261-1.757
		c0-0.805,0.138-1.546,0.413-2.221c0.277-0.674,0.691-1.281,1.243-1.817c0.552-0.533,1.18-0.938,1.88-1.207V28.87
		c0.697-0.269,1.465-0.402,2.299-0.402c0.975,0,1.952,0.239,2.93,0.715c0.966,0.469,1.937,1.175,2.906,2.112l0.177,0.173
		L110.821,31.642L110.821,31.642z M22.054,55.67l3.74-12.828c2.177-9.868-6.865-19.583-12.328-22.702
		c7.332,3.017,13.905,8.846,15.308,16.259c4.73-12.235,13.587-21.023,29.171-24.787C35.761,19.78,31.667,35.29,25.728,55.67
		C24.502,55.67,23.28,55.67,22.054,55.67L22.054,55.67z M0,49.646V21.365v-0.247h0.248h2.611h0.248v0.247v10.713
		c0.429-0.479,0.878-0.91,1.344-1.291c0.629-0.515,1.292-0.945,1.992-1.29l0.001-0.002c0.699-0.34,1.432-0.598,2.198-0.77
		c0.764-0.172,1.562-0.258,2.392-0.258c1.477,0,2.848,0.268,4.11,0.805c1.264,0.536,2.42,1.342,3.466,2.411
		c1.044,1.07,1.829,2.256,2.354,3.559c0.522,1.299,0.784,2.713,0.784,4.237c0,1.508-0.267,2.908-0.794,4.199
		c-0.529,1.289-1.321,2.469-2.376,3.535c-1.052,1.065-2.217,1.868-3.488,2.401c-1.272,0.535-2.652,0.805-4.133,0.805
		c-0.851,0-1.665-0.095-2.436-0.275c-0.769-0.183-1.502-0.458-2.199-0.824l0,0c-0.693-0.365-1.344-0.823-1.957-1.369
		c-0.441-0.397-0.861-0.84-1.259-1.33v3.025v0.244H2.859H0.248H0V49.646L0,49.646z M10.753,47.395c0.711,0,1.394-0.087,2.046-0.264
		c0.654-0.176,1.283-0.438,1.881-0.781l-0.001-0.002c0.599-0.347,1.138-0.766,1.613-1.255c0.476-0.488,0.893-1.05,1.248-1.682h0.001
		c0.357-0.628,0.624-1.279,0.801-1.946l0,0c0.178-0.667,0.267-1.355,0.267-2.062c0-0.7-0.089-1.386-0.268-2.056
		c-0.18-0.671-0.451-1.325-0.808-1.963c-0.358-0.641-0.779-1.208-1.258-1.702c-0.48-0.495-1.024-0.921-1.628-1.273
		c-0.6-0.354-1.225-0.62-1.866-0.796c-0.638-0.177-1.304-0.264-1.991-0.264c-0.697,0-1.378,0.087-2.039,0.264
		c-0.667,0.18-1.313,0.446-1.937,0.798c-0.627,0.353-1.184,0.771-1.666,1.248c-0.48,0.474-0.889,1.014-1.223,1.608
		c-0.335,0.603-0.588,1.241-0.757,1.915c-0.168,0.676-0.256,1.394-0.256,2.151c0,1.147,0.191,2.204,0.568,3.16
		c0.378,0.957,0.945,1.82,1.698,2.588c0.755,0.771,1.598,1.35,2.527,1.735C8.633,47.202,9.65,47.395,10.753,47.395L10.753,47.395z
		 M85.295,28.467c3.209,0,5.868,1.165,7.984,3.499l0,0c0.958,1.061,1.678,2.221,2.157,3.475c0.479,1.256,0.719,2.611,0.719,4.059
		c0,1.453-0.254,2.822-0.761,4.099c-0.507,1.274-1.267,2.458-2.276,3.545c-1.016,1.095-2.178,1.913-3.484,2.459
		c-1.305,0.545-2.752,0.818-4.338,0.818c-1.594,0-3.046-0.273-4.354-0.818c-1.309-0.548-2.473-1.364-3.489-2.459
		c-1.012-1.083-1.771-2.267-2.277-3.539c-0.508-1.278-0.761-2.647-0.761-4.104c0-1.441,0.24-2.789,0.719-4.046
		c0.479-1.249,1.198-2.407,2.156-3.466v-0.002c1.052-1.172,2.25-2.052,3.586-2.639h0.001C82.212,28.76,83.688,28.467,85.295,28.467
		L85.295,28.467z M85.295,31.531c-1.055,0-2.035,0.196-2.938,0.587c-0.903,0.392-1.736,0.979-2.494,1.759
		c-0.757,0.784-1.326,1.647-1.705,2.593c-0.378,0.942-0.567,1.973-0.567,3.088c0,0.718,0.086,1.415,0.258,2.079
		c0.172,0.665,0.431,1.307,0.778,1.923l0,0c0.346,0.62,0.751,1.17,1.216,1.646c0.464,0.475,0.991,0.879,1.579,1.218
		c0.586,0.333,1.201,0.587,1.846,0.754c0.643,0.166,1.32,0.25,2.027,0.25c1.403,0,2.694-0.334,3.869-1.002v-0.002
		c0.587-0.339,1.115-0.745,1.58-1.218c0.464-0.476,0.873-1.025,1.217-1.646c0.345-0.618,0.605-1.264,0.779-1.931
		c0.171-0.665,0.258-1.357,0.258-2.071c0-1.113-0.19-2.146-0.571-3.088c-0.381-0.945-0.953-1.809-1.715-2.593
		c-0.762-0.784-1.594-1.371-2.494-1.761C87.32,31.728,86.344,31.531,85.295,31.531L85.295,31.531z M72.342,33.691l-2.082,1.293
		l-0.191,0.119l-0.136-0.18c-0.877-1.162-1.913-2.034-3.106-2.615s-2.55-0.873-4.072-0.873c-1.211,0-2.321,0.196-3.324,0.585
		c-1,0.388-1.901,0.97-2.7,1.747c-0.797,0.774-1.396,1.636-1.792,2.574c-0.397,0.941-0.596,1.97-0.596,3.081
		c0,0.724,0.091,1.423,0.273,2.104c0.183,0.679,0.459,1.338,0.825,1.979l0,0c0.366,0.634,0.801,1.199,1.303,1.692
		c0.502,0.492,1.075,0.915,1.713,1.268c0.642,0.35,1.323,0.616,2.04,0.791c0.718,0.177,1.477,0.266,2.278,0.266
		c1.464,0,2.792-0.29,3.981-0.871h0.002c1.191-0.577,2.252-1.453,3.179-2.619l0.139-0.176l0.188,0.123l2.082,1.369l0.208,0.137
		l-0.137,0.207c-0.501,0.749-1.088,1.418-1.759,1.997c-0.67,0.581-1.427,1.078-2.268,1.49c-0.841,0.413-1.739,0.723-2.694,0.928
		c-0.954,0.205-1.964,0.312-3.028,0.312c-1.644,0-3.149-0.262-4.515-0.787c-1.368-0.523-2.597-1.311-3.684-2.357l-0.002-0.002
		c-1.084-1.047-1.902-2.213-2.446-3.489c-0.544-1.277-0.817-2.669-0.817-4.17c0-1.011,0.126-1.989,0.381-2.931l0,0
		c0.252-0.933,0.635-1.836,1.145-2.696v-0.002c0.504-0.864,1.108-1.638,1.808-2.315c0.698-0.676,1.494-1.259,2.383-1.746
		c0.888-0.482,1.832-0.851,2.826-1.093c0.991-0.244,2.035-0.364,3.124-0.364c0.684,0,1.361,0.054,2.028,0.16
		c0.666,0.105,1.319,0.264,1.959,0.471l0.001,0.002c0.641,0.212,1.233,0.456,1.773,0.729c0.545,0.273,1.043,0.583,1.492,0.92l0,0
		c0.451,0.339,0.867,0.729,1.252,1.163c0.382,0.435,0.731,0.914,1.047,1.442l0.124,0.208L72.342,33.691L72.342,33.691z
		 M37.133,37.884h10.32h0.246v0.246v2.29v0.249h-0.246h-10.32h-0.247V40.42v-2.29v-0.246H37.133L37.133,37.884z M190.3,21.073
		c0.501,0,0.932,0.178,1.293,0.54c0.354,0.354,0.535,0.786,0.535,1.291c0,0.498-0.181,0.924-0.535,1.278
		c-0.361,0.362-0.792,0.538-1.293,0.538c-0.496,0-0.921-0.176-1.283-0.538c-0.354-0.354-0.531-0.78-0.531-1.278
		c0-0.504,0.177-0.937,0.531-1.291C189.379,21.251,189.804,21.073,190.3,21.073L190.3,21.073z M115.271,28.991h2.607h0.246v0.248
		v2.775c0.318-0.408,0.64-0.778,0.966-1.108v-0.002c0.479-0.485,0.973-0.887,1.475-1.197l0.002-0.002
		c0.679-0.411,1.382-0.72,2.102-0.927l0,0c0.718-0.208,1.455-0.311,2.206-0.311c0.503,0,1.002,0.05,1.486,0.149
		c0.489,0.101,0.967,0.255,1.429,0.453l0,0c0.457,0.201,0.876,0.436,1.251,0.704c0.38,0.269,0.716,0.571,1.01,0.911
		c0.289,0.337,0.565,0.745,0.817,1.223c0.178,0.337,0.349,0.712,0.509,1.123c0.379-0.631,0.794-1.197,1.246-1.697
		c0.562-0.625,1.181-1.152,1.856-1.581l0,0c0.677-0.426,1.379-0.749,2.104-0.964c0.728-0.214,1.484-0.32,2.266-0.32
		c0.726,0,1.412,0.091,2.057,0.275c0.646,0.186,1.253,0.463,1.815,0.833l0,0c0.562,0.371,1.053,0.817,1.472,1.334
		c0.416,0.514,0.763,1.101,1.036,1.761c0.271,0.656,0.474,1.476,0.607,2.452c0.133,0.969,0.198,2.097,0.198,3.385v11.139v0.244
		h-0.246h-2.684h-0.246v-0.244V38.508c0-1.086-0.04-1.998-0.115-2.735c-0.077-0.733-0.188-1.299-0.335-1.691h-0.002
		c-0.146-0.382-0.346-0.732-0.597-1.039c-0.25-0.312-0.558-0.585-0.915-0.819c-0.356-0.237-0.747-0.414-1.174-0.53
		c-0.426-0.117-0.892-0.178-1.397-0.178c-0.616,0-1.205,0.088-1.76,0.268c-0.558,0.178-1.091,0.45-1.597,0.813h-0.004
		c-0.506,0.358-0.946,0.779-1.316,1.258c-0.369,0.481-0.675,1.024-0.913,1.625l0,0c-0.234,0.608-0.413,1.423-0.532,2.446
		c-0.119,1.032-0.18,2.276-0.18,3.731v7.99v0.244h-0.247h-2.604h-0.247v-0.244V39.198c0-1.231-0.039-2.258-0.112-3.081
		c-0.075-0.813-0.188-1.434-0.333-1.856c-0.146-0.414-0.347-0.791-0.599-1.125c-0.25-0.332-0.556-0.626-0.912-0.873
		c-0.355-0.25-0.751-0.436-1.178-0.561c-0.43-0.125-0.897-0.188-1.402-0.188c-0.583,0-1.146,0.088-1.688,0.262
		c-0.544,0.175-1.07,0.438-1.577,0.788c-0.508,0.354-0.95,0.769-1.326,1.24c-0.373,0.472-0.685,1.008-0.929,1.608l0,0
		c-0.244,0.597-0.431,1.36-0.554,2.288c-0.126,0.934-0.189,2.032-0.189,3.296v8.649v0.244h-0.246h-2.607h-0.247v-0.244V29.239
		v-0.248H115.271L115.271,28.991z M168.615,42.656l2.207,1.163l0.215,0.113l-0.11,0.216c-0.367,0.726-0.764,1.381-1.191,1.966
		c-0.428,0.587-0.885,1.104-1.37,1.556l0,0c-0.487,0.449-1.006,0.847-1.553,1.185c-0.545,0.341-1.124,0.626-1.734,0.861v0.002
		c-0.609,0.23-1.257,0.406-1.947,0.523c-0.685,0.117-1.412,0.179-2.171,0.179c-1.699,0-3.212-0.281-4.543-0.84
		c-1.336-0.56-2.485-1.398-3.45-2.519c-0.955-1.114-1.675-2.301-2.152-3.561c-0.477-1.262-0.718-2.596-0.718-4.002
		c0-2.641,0.812-5.004,2.437-7.071c1.029-1.316,2.233-2.309,3.616-2.967c1.381-0.664,2.935-0.994,4.653-0.994
		c1.776,0,3.377,0.337,4.795,1.013c1.424,0.677,2.67,1.691,3.729,3.042c0.755,0.952,1.326,2.028,1.714,3.22
		c0.382,1.183,0.578,2.484,0.59,3.901l0.004,0.25h-0.25h-18.086c0.044,1.059,0.237,2.029,0.577,2.905
		c0.366,0.945,0.906,1.786,1.614,2.523c0.708,0.731,1.502,1.283,2.371,1.65l0,0c0.872,0.366,1.83,0.551,2.873,0.551
		c0.509,0,1.009-0.044,1.498-0.132c0.487-0.088,0.973-0.221,1.443-0.397c0.48-0.178,0.924-0.385,1.333-0.62
		c0.4-0.232,0.767-0.492,1.095-0.78v-0.002c0.329-0.285,0.678-0.667,1.041-1.136c0.368-0.478,0.749-1.049,1.144-1.709l0.12-0.198
		L168.615,42.656L168.615,42.656z M168.179,37.134c-0.156-0.564-0.341-1.08-0.549-1.541c-0.246-0.54-0.532-1.014-0.853-1.413
		c-0.325-0.402-0.7-0.77-1.129-1.099c-0.426-0.325-0.906-0.612-1.44-0.86l0,0c-0.534-0.247-1.081-0.435-1.641-0.558
		c-0.556-0.126-1.133-0.186-1.725-0.186c-0.969,0-1.871,0.154-2.7,0.466c-0.831,0.31-1.596,0.779-2.288,1.401v0.002
		c-0.503,0.448-0.949,1.014-1.33,1.692h-0.002c-0.341,0.603-0.637,1.303-0.883,2.095H168.179L168.179,37.134z M178.564,21.419h2.648
		h0.248v0.245v7.328h3.914h0.246v0.248v2.252v0.246h-0.246h-3.914v17.909v0.244h-0.248h-2.648h-0.246v-0.244V31.737h-3.334h-0.247
		v-0.246v-2.252v-0.248h0.247h3.334v-7.328v-0.245H178.564L178.564,21.419z M188.901,28.991h2.644h0.248v0.248v20.407v0.244h-0.248
		h-2.644h-0.248v-0.244V29.239v-0.248H188.901L188.901,28.991z M216.918,33.691l-2.081,1.293l-0.191,0.119l-0.137-0.18
		c-0.877-1.162-1.913-2.034-3.107-2.615c-1.193-0.581-2.55-0.873-4.07-0.873c-1.212,0-2.321,0.196-3.325,0.585
		c-0.999,0.388-1.901,0.97-2.7,1.747c-0.795,0.774-1.396,1.636-1.792,2.574c-0.397,0.941-0.597,1.97-0.597,3.081
		c0,0.724,0.091,1.423,0.275,2.104c0.184,0.679,0.458,1.338,0.825,1.979h-0.002c0.366,0.634,0.801,1.199,1.305,1.692
		c0.501,0.492,1.072,0.915,1.714,1.268c0.642,0.35,1.32,0.616,2.038,0.791c0.718,0.177,1.478,0.266,2.276,0.266
		c1.466,0,2.794-0.29,3.983-0.871h0.002c1.191-0.577,2.251-1.453,3.179-2.619l0.141-0.176l0.188,0.123l2.081,1.369l0.208,0.137
		l-0.138,0.207c-0.501,0.749-1.088,1.418-1.76,1.997c-0.669,0.581-1.428,1.078-2.269,1.49c-0.842,0.413-1.738,0.723-2.692,0.928
		s-1.964,0.312-3.029,0.312c-1.644,0-3.148-0.262-4.513-0.787c-1.37-0.523-2.598-1.311-3.686-2.357l-0.002-0.002
		c-1.085-1.047-1.901-2.213-2.445-3.489c-0.546-1.277-0.817-2.669-0.817-4.17c0-1.013,0.127-1.989,0.381-2.931l0,0
		c0.255-0.933,0.635-1.834,1.146-2.696l-0.002-0.002c0.507-0.864,1.108-1.638,1.81-2.315c0.696-0.674,1.492-1.259,2.382-1.746
		c0.889-0.482,1.832-0.851,2.825-1.093c0.991-0.244,2.034-0.364,3.125-0.364c0.686,0,1.362,0.054,2.027,0.16
		c0.669,0.105,1.321,0.264,1.962,0.471v0.002c0.64,0.212,1.232,0.456,1.772,0.729c0.545,0.273,1.042,0.583,1.492,0.92l0,0
		c0.45,0.339,0.868,0.729,1.252,1.163c0.383,0.435,0.731,0.914,1.046,1.442l0.124,0.208L216.918,33.691L216.918,33.691z
		 M232.27,31.642l-1.689,1.749l-0.173,0.177l-0.176-0.171c-0.681-0.662-1.354-1.16-2.019-1.491c-0.65-0.324-1.289-0.487-1.921-0.487
		c-0.396,0-0.76,0.065-1.093,0.194c-0.331,0.129-0.641,0.325-0.922,0.585l0,0c-0.278,0.256-0.487,0.537-0.627,0.835
		c-0.135,0.295-0.202,0.616-0.202,0.955c0,0.6,0.23,1.181,0.692,1.738l0,0c0.233,0.288,0.61,0.606,1.118,0.954
		c0.513,0.354,1.166,0.736,1.952,1.141c0.99,0.513,1.821,1.016,2.492,1.511c0.681,0.498,1.204,0.997,1.568,1.488l0.002,0.002
		c0.361,0.494,0.634,1.025,0.813,1.583c0.183,0.559,0.272,1.149,0.272,1.77c0,0.867-0.155,1.672-0.461,2.412
		c-0.31,0.741-0.768,1.414-1.382,2.021l0,0c-0.61,0.603-1.299,1.057-2.063,1.359c-0.766,0.3-1.603,0.454-2.514,0.454
		c-1.213,0-2.37-0.266-3.473-0.795c-0.551-0.266-1.053-0.579-1.507-0.94c-0.458-0.366-0.873-0.784-1.237-1.248l-0.129-0.163
		l0.137-0.152l1.653-1.876l0.184-0.208l0.186,0.208c0.648,0.73,1.315,1.279,1.999,1.644v0.002c0.672,0.357,1.364,0.536,2.074,0.536
		c0.497,0,0.957-0.078,1.377-0.236c0.413-0.157,0.794-0.394,1.139-0.71l0,0c0.343-0.312,0.603-0.656,0.772-1.023h0.002
		c0.166-0.36,0.252-0.755,0.252-1.176c0-0.349-0.057-0.675-0.166-0.981c-0.113-0.305-0.281-0.595-0.507-0.862
		c-0.232-0.274-0.617-0.589-1.152-0.939l0,0c-0.539-0.358-1.231-0.751-2.072-1.178h-0.002c-0.928-0.481-1.713-0.962-2.35-1.439
		c-0.646-0.487-1.143-0.97-1.489-1.453c-0.344-0.479-0.604-1-0.778-1.555c-0.172-0.553-0.26-1.14-0.26-1.757
		c0-0.805,0.139-1.546,0.414-2.221c0.275-0.674,0.691-1.281,1.243-1.817c0.551-0.533,1.18-0.938,1.879-1.207V28.87
		c0.696-0.269,1.466-0.402,2.299-0.402c0.976,0,1.954,0.239,2.932,0.715c0.966,0.469,1.938,1.175,2.905,2.112l0.178,0.173
		L232.27,31.642L232.27,31.642z"/>
	<path fill-rule="evenodd" clip-rule="evenodd" fill="#D2A4CC" d="M69.797,0.824C68.919,22.2,51.736,35.883,34.087,35.742
		C49.344,33.67,64.25,19.604,65.678,3.817c-16.507-1.851-36.566,7.661-36.292,26.435c-3.308-8.199-11.625-13.369-20.407-12.344
		c0.014,3.398,0.811,6.784,2.325,9.824c-2.823-3.406-4.619-7.792-4.977-12.21c9.64-2.779,19.365,2.971,22.521,12.296
		C27.981,8.979,49.365-3.385,69.797,0.824L69.797,0.824z"/>
	<path fill="#D2A4CC" d="M204.532,22.315c-0.254,0.315-0.526,0.586-0.806,0.81c-0.285,0.227-0.587,0.407-0.9,0.544h-0.002
		c-0.314,0.135-0.654,0.235-1.009,0.301c-0.354,0.064-0.728,0.098-1.116,0.098c-0.694,0-1.343-0.113-1.941-0.338l0,0
		c-0.599-0.229-1.147-0.573-1.646-1.025c-0.539-0.493-0.946-1.056-1.216-1.686c-0.268-0.628-0.404-1.325-0.404-2.085
		c0-0.689,0.107-1.329,0.322-1.915l0,0c0.217-0.591,0.54-1.128,0.971-1.614h-0.002c0.48-0.545,1.051-0.958,1.709-1.232
		c0.65-0.272,1.389-0.411,2.207-0.411c0.414,0,0.837,0.062,1.259,0.184c0.421,0.122,0.845,0.301,1.273,0.542
		c0.137,0.074,0.295,0.178,0.472,0.303l0,0c0.168,0.121,0.358,0.264,0.567,0.428l0.207,0.17l-0.188,0.193l-0.746,0.767l-0.185,0.19
		l-0.175-0.197c-0.131-0.146-0.285-0.284-0.461-0.407c-0.175-0.123-0.371-0.233-0.589-0.328c-0.228-0.09-0.46-0.159-0.692-0.206
		h-0.004c-0.231-0.044-0.468-0.07-0.706-0.07c-0.464,0-0.904,0.092-1.316,0.267c-0.416,0.182-0.814,0.452-1.182,0.81l-0.002,0.002
		c-0.37,0.354-0.646,0.743-0.828,1.16c-0.182,0.411-0.273,0.854-0.273,1.333c0,0.491,0.086,0.947,0.262,1.362l0,0
		c0.172,0.418,0.438,0.802,0.79,1.148v0.004c0.349,0.352,0.729,0.616,1.135,0.792c0.406,0.172,0.845,0.262,1.311,0.262
		c0.497,0,0.997-0.109,1.503-0.326l0.002-0.002c0.244-0.104,0.472-0.225,0.674-0.364c0.2-0.141,0.38-0.301,0.533-0.471l0.16-0.184
		l0.184,0.159l0.815,0.692l0.182,0.156L204.532,22.315L204.532,22.315z M215.512,18.984c0,0.724-0.123,1.391-0.367,1.999l0,0
		c-0.245,0.608-0.616,1.158-1.107,1.645h-0.002c-0.497,0.491-1.057,0.858-1.672,1.105c-0.617,0.247-1.289,0.372-2.021,0.372
		c-1.468,0-2.694-0.495-3.674-1.475c-0.501-0.487-0.873-1.035-1.124-1.645c-0.25-0.61-0.375-1.277-0.375-2.001
		c0-1.456,0.493-2.672,1.479-3.66c0.489-0.491,1.046-0.861,1.663-1.109c0.617-0.245,1.294-0.368,2.03-0.368
		c1.455,0,2.679,0.491,3.672,1.477c0.498,0.491,0.873,1.042,1.124,1.655l0,0C215.387,17.589,215.512,18.258,215.512,18.984
		L215.512,18.984z M213.926,18.984c0-0.505-0.086-0.972-0.258-1.399l0,0c-0.173-0.426-0.433-0.813-0.779-1.164l-0.002-0.005
		c-0.351-0.346-0.737-0.604-1.158-0.777v0.002c-0.424-0.174-0.886-0.258-1.386-0.258c-0.502,0-0.964,0.084-1.382,0.256
		c-0.421,0.172-0.806,0.435-1.15,0.78l0,0c-0.702,0.701-1.055,1.558-1.055,2.565c0,0.504,0.089,0.972,0.261,1.395l-0.002,0.002
		c0.172,0.418,0.432,0.804,0.78,1.152l0,0c0.345,0.344,0.729,0.607,1.152,0.779c0.424,0.17,0.89,0.258,1.396,0.258
		c0.5,0,0.962-0.09,1.384-0.264l0,0c0.423-0.172,0.81-0.438,1.162-0.791l0,0C213.579,20.824,213.926,19.979,213.926,18.984
		L213.926,18.984z M232.054,23.896h-1.126h-0.247v-0.247v-5.271c0-0.465-0.064-0.886-0.191-1.258
		c-0.125-0.364-0.312-0.69-0.562-0.97c-0.252-0.274-0.533-0.481-0.843-0.616c-0.308-0.136-0.647-0.206-1.019-0.206
		c-0.359,0-0.684,0.059-0.977,0.174s-0.56,0.29-0.794,0.519l-0.002,0.002c-0.284,0.273-0.5,0.612-0.641,1.011l0,0
		c-0.145,0.409-0.219,0.884-0.219,1.428v5.188v0.247h-0.248h-1.125h-0.25v-0.247v-5.238c0-0.54-0.07-1.009-0.215-1.411
		c-0.144-0.395-0.358-0.726-0.642-0.993v-0.002c-0.234-0.223-0.504-0.393-0.799-0.506c-0.298-0.111-0.627-0.17-0.993-0.17
		c-0.407,0-0.767,0.07-1.082,0.206c-0.309,0.135-0.58,0.338-0.812,0.61c-0.23,0.272-0.407,0.599-0.524,0.974
		c-0.117,0.382-0.178,0.82-0.178,1.309v5.223v0.247h-0.248h-1.11h-0.248v-0.247v-9.363v-0.249h0.248h1.043h0.25l-0.003,0.251
		l-0.008,0.76c0.148-0.182,0.32-0.35,0.508-0.504l0,0c0.306-0.25,0.643-0.438,1.002-0.563l0,0c0.36-0.125,0.751-0.188,1.162-0.188
		c0.352,0,0.703,0.051,1.058,0.145c0.349,0.093,0.7,0.236,1.055,0.424l0.002,0.002c0.354,0.193,0.663,0.422,0.927,0.68h0.002
		c0.164,0.161,0.312,0.335,0.442,0.521c0.325-0.479,0.753-0.88,1.279-1.197h0.002c0.318-0.19,0.653-0.333,1.004-0.428l0.004-0.002
		c0.348-0.094,0.716-0.145,1.095-0.145c0.571,0,1.107,0.1,1.599,0.292c0.491,0.193,0.941,0.485,1.344,0.871
		c0.442,0.422,0.775,0.917,0.997,1.48c0.22,0.556,0.331,1.182,0.331,1.87v5.344v0.247H232.054L232.054,23.896z"/>
</g>
</svg>
