<?xml version="1.0" encoding="utf-8"?>
<!-- Generated by IcoMoon.io -->
<!DOCTYPE svg PUBLIC "-//W3C//DTD SVG 1.1//EN" "http://www.w3.org/Graphics/SVG/1.1/DTD/svg11.dtd">

<svg version="1.1" xmlns="http://www.w3.org/2000/svg" xmlns:xlink="http://www.w3.org/1999/xlink">
<defs>

  <symbol id="cart" viewBox="0 0 510 510">
    <path d="M153,408c-28.05,0-51,22.95-51,51s22.95,51,51,51s51-22.95,51-51S181.05,408,153,408z M0,0v51h51l91.8,193.8L107.1,306
      c-2.55,7.65-5.1,17.85-5.1,25.5c0,28.05,22.95,51,51,51h306v-51H163.2c-2.55,0-5.1-2.55-5.1-5.1v-2.551l22.95-43.35h188.7
      c20.4,0,35.7-10.2,43.35-25.5L504.9,89.25c5.1-5.1,5.1-7.65,5.1-12.75c0-15.3-10.2-25.5-25.5-25.5H107.1L84.15,0H0z M408,408
      c-28.05,0-51,22.95-51,51s22.95,51,51,51s51-22.95,51-51S436.05,408,408,408z"/>
  </symbol>

  <symbol id="logo" viewBox="0 0 233.86 56.04" >
    <path clip-rule="evenodd" d="m110.821 31.642-1.69 1.749-.172.177-.178-.171c-.679-.662-1.353-1.16-2.016-1.491-.65-.324-1.291-.487-1.921-.487-.396 0-.76.065-1.093.194s-.64.325-.92.585c-.28.258-.489.537-.626.835-.136.295-.205.616-.205.955 0 .299.057.594.17.88h-.001c.114.29.291.577.523.858.236.288.609.606 1.118.954.514.354 1.167.736 1.955 1.141.988.513 1.819 1.016 2.491 1.511.68.5 1.204.997 1.569 1.488l.001.002c.361.494.633 1.023.814 1.583.181.559.271 1.149.271 1.77 0 .867-.154 1.67-.462 2.412-.308.741-.767 1.414-1.379 2.021h-.001c-.61.603-1.299 1.057-2.064 1.359-.763.3-1.601.454-2.512.454-1.213 0-2.37-.266-3.474-.795-.552-.266-1.055-.579-1.507-.94-.46-.366-.873-.784-1.237-1.248l-.127-.163.135-.152 1.653-1.876.183-.208.186.208c.648.73 1.316 1.279 2 1.644v.002c.673.357 1.363.536 2.073.536.497 0 .957-.078 1.375-.236.416-.157.797-.394 1.14-.71.342-.312.603-.656.773-1.023h.001c.167-.36.252-.755.252-1.176 0-.349-.056-.675-.167-.981-.111-.305-.28-.595-.505-.862-.233-.274-.617-.589-1.151-.939h-.001c-.54-.358-1.232-.751-2.071-1.178h-.004c-.927-.481-1.711-.962-2.348-1.439-.647-.487-1.144-.97-1.49-1.453-.344-.479-.605-1-.777-1.555-.173-.553-.261-1.14-.261-1.757 0-.805.138-1.546.413-2.221.277-.674.691-1.281 1.243-1.817.552-.533 1.18-.938 1.88-1.207v-.005c.697-.269 1.465-.402 2.299-.402.975 0 1.952.239 2.93.715.966.469 1.937 1.175 2.906 2.112l.177.173zm-88.767 24.028 3.74-12.828c2.177-9.868-6.865-19.583-12.328-22.702 7.332 3.017 13.905 8.846 15.308 16.259 4.73-12.235 13.587-21.023 29.171-24.787-22.184 8.168-26.278 23.678-32.217 44.058-1.226 0-2.448 0-3.674 0zm-22.054-6.024v-28.281-.247h.248 2.611.248v.247 10.713c.429-.479.878-.91 1.344-1.291.629-.515 1.292-.945 1.992-1.29l.001-.002c.699-.34 1.432-.598 2.198-.77.764-.172 1.562-.258 2.392-.258 1.477 0 2.848.268 4.11.805 1.264.536 2.42 1.342 3.466 2.411 1.044 1.07 1.829 2.256 2.354 3.559.522 1.299.784 2.713.784 4.237 0 1.508-.267 2.908-.794 4.199-.529 1.289-1.321 2.469-2.376 3.535-1.052 1.065-2.217 1.868-3.488 2.401-1.272.535-2.652.805-4.133.805-.851 0-1.665-.095-2.436-.275-.769-.183-1.502-.458-2.199-.824-.693-.365-1.344-.823-1.957-1.369-.441-.397-.861-.84-1.259-1.33v3.025.244h-.247-2.611-.248zm10.753-2.251c.711 0 1.394-.087 2.046-.264.654-.176 1.283-.438 1.881-.781l-.001-.002c.599-.347 1.138-.766 1.613-1.255.476-.488.893-1.05 1.248-1.682h.001c.357-.628.624-1.279.801-1.946.178-.667.267-1.355.267-2.062 0-.7-.089-1.386-.268-2.056-.18-.671-.451-1.325-.808-1.963-.358-.641-.779-1.208-1.258-1.702-.48-.495-1.024-.921-1.628-1.273-.6-.354-1.225-.62-1.866-.796-.638-.177-1.304-.264-1.991-.264-.697 0-1.378.087-2.039.264-.667.18-1.313.446-1.937.798-.627.353-1.184.771-1.666 1.248-.48.474-.889 1.014-1.223 1.608-.335.603-.588 1.241-.757 1.915-.168.676-.256 1.394-.256 2.151 0 1.147.191 2.204.568 3.16.378.957.945 1.82 1.698 2.588.755.771 1.598 1.35 2.527 1.735.928.386 1.945.579 3.048.579zm74.542-18.928c3.209 0 5.868 1.165 7.984 3.499.958 1.061 1.678 2.221 2.157 3.475.479 1.256.719 2.611.719 4.059 0 1.453-.254 2.822-.761 4.099-.507 1.274-1.267 2.458-2.276 3.545-1.016 1.095-2.178 1.913-3.484 2.459-1.305.545-2.752.818-4.338.818-1.594 0-3.046-.273-4.354-.818-1.309-.548-2.473-1.364-3.489-2.459-1.012-1.083-1.771-2.267-2.277-3.539-.508-1.278-.761-2.647-.761-4.104 0-1.441.24-2.789.719-4.046.479-1.249 1.198-2.407 2.156-3.466v-.002c1.052-1.172 2.25-2.052 3.586-2.639h.001c1.335-.588 2.811-.881 4.418-.881zm0 3.064c-1.055 0-2.035.196-2.938.587-.903.392-1.736.979-2.494 1.759-.757.784-1.326 1.647-1.705 2.593-.378.942-.567 1.973-.567 3.088 0 .718.086 1.415.258 2.079.172.665.431 1.307.778 1.923.346.62.751 1.17 1.216 1.646.464.475.991.879 1.579 1.218.586.333 1.201.587 1.846.754.643.166 1.32.25 2.027.25 1.403 0 2.694-.334 3.869-1.002v-.002c.587-.339 1.115-.745 1.58-1.218.464-.476.873-1.025 1.217-1.646.345-.618.605-1.264.779-1.931.171-.665.258-1.357.258-2.071 0-1.113-.19-2.146-.571-3.088-.381-.945-.953-1.809-1.715-2.593s-1.594-1.371-2.494-1.761c-.898-.388-1.874-.585-2.923-.585zm-12.953 2.16-2.082 1.293-.191.119-.136-.18c-.877-1.162-1.913-2.034-3.106-2.615s-2.55-.873-4.072-.873c-1.211 0-2.321.196-3.324.585-1 .388-1.901.97-2.7 1.747-.797.774-1.396 1.636-1.792 2.574-.397.941-.596 1.97-.596 3.081 0 .724.091 1.423.273 2.104.183.679.459 1.338.825 1.979.366.634.801 1.199 1.303 1.692.502.492 1.075.915 1.713 1.268.642.35 1.323.616 2.04.791.718.177 1.477.266 2.278.266 1.464 0 2.792-.29 3.981-.871h.002c1.191-.577 2.252-1.453 3.179-2.619l.139-.176.188.123 2.082 1.369.208.137-.137.207c-.501.749-1.088 1.418-1.759 1.997-.67.581-1.427 1.078-2.268 1.49-.841.413-1.739.723-2.694.928-.954.205-1.964.312-3.028.312-1.644 0-3.149-.262-4.515-.787-1.368-.523-2.597-1.311-3.684-2.357l-.002-.002c-1.084-1.047-1.902-2.213-2.446-3.489-.544-1.277-.817-2.669-.817-4.17 0-1.011.126-1.989.381-2.931.252-.933.635-1.836 1.145-2.696v-.002c.504-.864 1.108-1.638 1.808-2.315.698-.676 1.494-1.259 2.383-1.746.888-.482 1.832-.851 2.826-1.093.991-.244 2.035-.364 3.124-.364.684 0 1.361.054 2.028.16.666.105 1.319.264 1.959.471l.001.002c.641.212 1.233.456 1.773.729.545.273 1.043.583 1.492.92.451.339.867.729 1.252 1.163.382.435.731.914 1.047 1.442l.124.208zm-35.209 4.193h10.32.246v.246 2.29.249h-.246-10.32-.247v-.249-2.29-.246zm153.167-16.811c.501 0 .932.178 1.293.54.354.354.535.786.535 1.291 0 .498-.181.924-.535 1.278-.361.362-.792.538-1.293.538-.496 0-.921-.176-1.283-.538-.354-.354-.531-.78-.531-1.278 0-.504.177-.937.531-1.291.362-.362.787-.54 1.283-.54zm-75.029 7.918h2.607.246v.248 2.775c.318-.408.64-.778.966-1.108v-.002c.479-.485.973-.887 1.475-1.197l.002-.002c.679-.411 1.382-.72 2.102-.927.718-.208 1.455-.311 2.206-.311.503 0 1.002.05 1.486.149.489.101.967.255 1.429.453.457.201.876.436 1.251.704.38.269.716.571 1.01.911.289.337.565.745.817 1.223.178.337.349.712.509 1.123.379-.631.794-1.197 1.246-1.697.562-.625 1.181-1.152 1.856-1.581.677-.426 1.379-.749 2.104-.964.728-.214 1.484-.32 2.266-.32.726 0 1.412.091 2.057.275.646.186 1.253.463 1.815.833.562.371 1.053.817 1.472 1.334.416.514.763 1.101 1.036 1.761.271.656.474 1.476.607 2.452.133.969.198 2.097.198 3.385v11.139.244h-.246-2.684-.246v-.244-11.139c0-1.086-.04-1.998-.115-2.735-.077-.733-.188-1.299-.335-1.691h-.002c-.146-.382-.346-.732-.597-1.039-.25-.312-.558-.585-.915-.819-.356-.237-.747-.414-1.174-.53-.426-.117-.892-.178-1.397-.178-.616 0-1.205.088-1.76.268-.558.178-1.091.45-1.597.813h-.004c-.506.358-.946.779-1.316 1.258-.369.481-.675 1.024-.913 1.625-.234.608-.413 1.423-.532 2.446-.119 1.032-.18 2.276-.18 3.731v7.99.244h-.247-2.604-.247v-.244-10.449c0-1.231-.039-2.258-.112-3.081-.075-.813-.188-1.434-.333-1.856-.146-.414-.347-.791-.599-1.125-.25-.332-.556-.626-.912-.873-.355-.25-.751-.436-1.178-.561-.43-.125-.897-.188-1.402-.188-.583 0-1.146.088-1.688.262-.544.175-1.07.438-1.577.788-.508.354-.95.769-1.326 1.24-.373.472-.685 1.008-.929 1.608-.244.597-.431 1.36-.554 2.288-.126.934-.189 2.032-.189 3.296v8.649.244h-.246-2.607-.247v-.244-20.406-.248zm53.344 13.665 2.207 1.163.215.113-.11.216c-.367.726-.764 1.381-1.191 1.966-.428.587-.885 1.104-1.37 1.556-.487.449-1.006.847-1.553 1.185-.545.341-1.124.626-1.734.861v.002c-.609.23-1.257.406-1.947.523-.685.117-1.412.179-2.171.179-1.699 0-3.212-.281-4.543-.84-1.336-.56-2.485-1.398-3.45-2.519-.955-1.114-1.675-2.301-2.152-3.561-.477-1.262-.718-2.596-.718-4.002 0-2.641.812-5.004 2.437-7.071 1.029-1.316 2.233-2.309 3.616-2.967 1.381-.664 2.935-.994 4.653-.994 1.776 0 3.377.337 4.795 1.013 1.424.677 2.67 1.691 3.729 3.042.755.952 1.326 2.028 1.714 3.22.382 1.183.578 2.484.59 3.901l.004.25h-.25-18.086c.044 1.059.237 2.029.577 2.905.366.945.906 1.786 1.614 2.523.708.731 1.502 1.283 2.371 1.65.872.366 1.83.551 2.873.551.509 0 1.009-.044 1.498-.132.487-.088.973-.221 1.443-.397.48-.178.924-.385 1.333-.62.4-.232.767-.492 1.095-.78v-.002c.329-.285.678-.667 1.041-1.136.368-.478.749-1.049 1.144-1.709l.12-.198zm-.436-5.522c-.156-.564-.341-1.08-.549-1.541-.246-.54-.532-1.014-.853-1.413-.325-.402-.7-.77-1.129-1.099-.426-.325-.906-.612-1.44-.86-.534-.247-1.081-.435-1.641-.558-.556-.126-1.133-.186-1.725-.186-.969 0-1.871.154-2.7.466-.831.31-1.596.779-2.288 1.401v.002c-.503.448-.949 1.014-1.33 1.692h-.002c-.341.603-.637 1.303-.883 2.095h14.54zm10.385-15.715h2.648.248v.245 7.328h3.914.246v.248 2.252.246h-.246-3.914v17.909.244h-.248-2.648-.246v-.244-17.91h-3.334-.247v-.246-2.252-.248h.247 3.334v-7.328-.245h.246zm10.337 7.572h2.644.248v.248 20.407.244h-.248-2.644-.248v-.244-20.407-.248zm28.017 4.7-2.081 1.293-.191.119-.137-.18c-.877-1.162-1.913-2.034-3.107-2.615-1.193-.581-2.55-.873-4.07-.873-1.212 0-2.321.196-3.325.585-.999.388-1.901.97-2.7 1.747-.795.774-1.396 1.636-1.792 2.574-.397.941-.597 1.97-.597 3.081 0 .724.091 1.423.275 2.104.184.679.458 1.338.825 1.979h-.002c.366.634.801 1.199 1.305 1.692.501.492 1.072.915 1.714 1.268.642.35 1.32.616 2.038.791.718.177 1.478.266 2.276.266 1.466 0 2.794-.29 3.983-.871h.002c1.191-.577 2.251-1.453 3.179-2.619l.141-.176.188.123 2.081 1.369.208.137-.138.207c-.501.749-1.088 1.418-1.76 1.997-.669.581-1.428 1.078-2.269 1.49-.842.413-1.738.723-2.692.928s-1.964.312-3.029.312c-1.644 0-3.148-.262-4.513-.787-1.37-.523-2.598-1.311-3.686-2.357l-.002-.002c-1.085-1.047-1.901-2.213-2.445-3.489-.546-1.277-.817-2.669-.817-4.17 0-1.013.127-1.989.381-2.931.255-.933.635-1.834 1.146-2.696l-.002-.002c.507-.864 1.108-1.638 1.81-2.315.696-.674 1.492-1.259 2.382-1.746.889-.482 1.832-.851 2.825-1.093.991-.244 2.034-.364 3.125-.364.686 0 1.362.054 2.027.16.669.105 1.321.264 1.962.471v.002c.64.212 1.232.456 1.772.729.545.273 1.042.583 1.492.92.45.339.868.729 1.252 1.163.383.435.731.914 1.046 1.442l.124.208zm15.352-2.049-1.689 1.749-.173.177-.176-.171c-.681-.662-1.354-1.16-2.019-1.491-.65-.324-1.289-.487-1.921-.487-.396 0-.76.065-1.093.194-.331.129-.641.325-.922.585-.278.256-.487.537-.627.835-.135.295-.202.616-.202.955 0 .6.23 1.181.692 1.738.233.288.61.606 1.118.954.513.354 1.166.736 1.952 1.141.99.513 1.821 1.016 2.492 1.511.681.498 1.204.997 1.568 1.488l.002.002c.361.494.634 1.025.813 1.583.183.559.272 1.149.272 1.77 0 .867-.155 1.672-.461 2.412-.31.741-.768 1.414-1.382 2.021-.61.603-1.299 1.057-2.063 1.359-.766.3-1.603.454-2.514.454-1.213 0-2.37-.266-3.473-.795-.551-.266-1.053-.579-1.507-.94-.458-.366-.873-.784-1.237-1.248l-.129-.163.137-.152 1.653-1.876.184-.208.186.208c.648.73 1.315 1.279 1.999 1.644v.002c.672.357 1.364.536 2.074.536.497 0 .957-.078 1.377-.236.413-.157.794-.394 1.139-.71.343-.312.603-.656.772-1.023h.002c.166-.36.252-.755.252-1.176 0-.349-.057-.675-.166-.981-.113-.305-.281-.595-.507-.862-.232-.274-.617-.589-1.152-.939-.539-.358-1.231-.751-2.072-1.178h-.002c-.928-.481-1.713-.962-2.35-1.439-.646-.487-1.143-.97-1.489-1.453-.344-.479-.604-1-.778-1.555-.172-.553-.26-1.14-.26-1.757 0-.805.139-1.546.414-2.221.275-.674.691-1.281 1.243-1.817.551-.533 1.18-.938 1.879-1.207v-.005c.696-.269 1.466-.402 2.299-.402.976 0 1.954.239 2.932.715.966.469 1.938 1.175 2.905 2.112l.178.173z" fill-rule="evenodd"/><path clip-rule="evenodd" d="m69.797.824c-.878 21.376-18.061 35.059-35.71 34.918 15.257-2.072 30.163-16.138 31.591-31.925-16.507-1.851-36.566 7.661-36.292 26.435-3.308-8.199-11.625-13.369-20.407-12.344.014 3.398.811 6.784 2.325 9.824-2.823-3.406-4.619-7.792-4.977-12.21 9.64-2.779 19.365 2.971 22.521 12.296-.867-18.839 20.517-31.203 40.949-26.994z" fill-rule="evenodd"/><path d="m204.532 22.315c-.254.315-.526.586-.806.81-.285.227-.587.407-.9.544h-.002c-.314.135-.654.235-1.009.301-.354.064-.728.098-1.116.098-.694 0-1.343-.113-1.941-.338-.599-.229-1.147-.573-1.646-1.025-.539-.493-.946-1.056-1.216-1.686-.268-.628-.404-1.325-.404-2.085 0-.689.107-1.329.322-1.915.217-.591.54-1.128.971-1.614h-.002c.48-.545 1.051-.958 1.709-1.232.65-.272 1.389-.411 2.207-.411.414 0 .837.062 1.259.184.421.122.845.301 1.273.542.137.074.295.178.472.303.168.121.358.264.567.428l.207.17-.188.193-.746.767-.185.19-.175-.197c-.131-.146-.285-.284-.461-.407-.175-.123-.371-.233-.589-.328-.228-.09-.46-.159-.692-.206h-.004c-.231-.044-.468-.07-.706-.07-.464 0-.904.092-1.316.267-.416.182-.814.452-1.182.81l-.002.002c-.37.354-.646.743-.828 1.16-.182.411-.273.854-.273 1.333 0 .491.086.947.262 1.362.172.418.438.802.79 1.148v.004c.349.352.729.616 1.135.792.406.172.845.262 1.311.262.497 0 .997-.109 1.503-.326l.002-.002c.244-.104.472-.225.674-.364.2-.141.38-.301.533-.471l.16-.184.184.159.815.692.182.156zm10.98-3.331c0 .724-.123 1.391-.367 1.999-.245.608-.616 1.158-1.107 1.645h-.002c-.497.491-1.057.858-1.672 1.105-.617.247-1.289.372-2.021.372-1.468 0-2.694-.495-3.674-1.475-.501-.487-.873-1.035-1.124-1.645-.25-.61-.375-1.277-.375-2.001 0-1.456.493-2.672 1.479-3.66.489-.491 1.046-.861 1.663-1.109.617-.245 1.294-.368 2.03-.368 1.455 0 2.679.491 3.672 1.477.498.491.873 1.042 1.124 1.655.249.61.374 1.279.374 2.005zm-1.586 0c0-.505-.086-.972-.258-1.399-.173-.426-.433-.813-.779-1.164l-.002-.005c-.351-.346-.737-.604-1.158-.777v.002c-.424-.174-.886-.258-1.386-.258-.502 0-.964.084-1.382.256-.421.172-.806.435-1.15.78-.702.701-1.055 1.558-1.055 2.565 0 .504.089.972.261 1.395l-.002.002c.172.418.432.804.78 1.152.345.344.729.607 1.152.779.424.17.89.258 1.396.258.5 0 .962-.09 1.384-.264.423-.172.81-.438 1.162-.791.69-.691 1.037-1.536 1.037-2.531zm18.128 4.912h-1.126-.247v-.247-5.271c0-.465-.064-.886-.191-1.258-.125-.364-.312-.69-.562-.97-.252-.274-.533-.481-.843-.616-.308-.136-.647-.206-1.019-.206-.359 0-.684.059-.977.174s-.56.29-.794.519l-.002.002c-.284.273-.5.612-.641 1.011-.145.409-.219.884-.219 1.428v5.188.247h-.248-1.125-.25v-.247-5.238c0-.54-.07-1.009-.215-1.411-.144-.395-.358-.726-.642-.993v-.002c-.234-.223-.504-.393-.799-.506-.298-.111-.627-.17-.993-.17-.407 0-.767.07-1.082.206-.309.135-.58.338-.812.61-.23.272-.407.599-.524.974-.117.382-.178.82-.178 1.309v5.223.247h-.248-1.11-.248v-.247-9.363-.249h.248 1.043.25l-.003.251-.008.76c.148-.182.32-.35.508-.504.306-.25.643-.438 1.002-.563.36-.125.751-.188 1.162-.188.352 0 .703.051 1.058.145.349.093.7.236 1.055.424l.002.002c.354.193.663.422.927.68h.002c.164.161.312.335.442.521.325-.479.753-.88 1.279-1.197h.002c.318-.19.653-.333 1.004-.428l.004-.002c.348-.094.716-.145 1.095-.145.571 0 1.107.1 1.599.292.491.193.941.485 1.344.871.442.422.775.917.997 1.48.22.556.331 1.182.331 1.87v5.344.247h-.248z"/>
  </symbol>
</defs>
</svg>
